<?xml version="1.0" encoding="UTF-8" standalone="no"?>
<!-- Created with Inkscape (http://www.inkscape.org/) -->

<svg
   xmlns:dc="http://purl.org/dc/elements/1.1/"
   xmlns:cc="http://creativecommons.org/ns#"
   xmlns:rdf="http://www.w3.org/1999/02/22-rdf-syntax-ns#"
   xmlns:svg="http://www.w3.org/2000/svg"
   xmlns="http://www.w3.org/2000/svg"
   xmlns:xlink="http://www.w3.org/1999/xlink"
   xmlns:sodipodi="http://sodipodi.sourceforge.net/DTD/sodipodi-0.dtd"
   xmlns:inkscape="http://www.inkscape.org/namespaces/inkscape"
   width="342.36594"
   height="144.27757"
   id="svg2"
   version="1.1"
   inkscape:version="0.48.2 r9819"
   sodipodi:docname="New document 1">
  <defs
     id="defs4">
    <linearGradient
       inkscape:collect="always"
       id="linearGradient10903">
      <stop
         style="stop-color:#e0e0e0;stop-opacity:1"
         offset="0"
         id="stop10905" />
      <stop
         style="stop-color:#cccccc;stop-opacity:0;"
         offset="1"
         id="stop10907" />
    </linearGradient>
    <radialGradient
       inkscape:collect="always"
       xlink:href="#linearGradient10903"
       id="radialGradient10911"
       cx="477.5"
       cy="312.86218"
       fx="477.5"
       fy="312.86218"
       r="41.5"
       gradientTransform="matrix(1,0,0,0.18072289,0,256.32082)"
       gradientUnits="userSpaceOnUse" />
    <radialGradient
       inkscape:collect="always"
       xlink:href="#linearGradient10903"
       id="radialGradient10917"
       gradientUnits="userSpaceOnUse"
       gradientTransform="matrix(1,0,0,0.18072289,0,256.32082)"
       cx="477.5"
       cy="312.86218"
       fx="477.5"
       fy="312.86218"
       r="41.5" />
  </defs>
  <sodipodi:namedview
     id="base"
     pagecolor="#ffffff"
     bordercolor="#666666"
     borderopacity="1.0"
     inkscape:pageopacity="0.0"
     inkscape:pageshadow="2"
     inkscape:zoom="1"
     inkscape:cx="210.54736"
     inkscape:cy="58.870766"
     inkscape:document-units="px"
     inkscape:current-layer="layer1"
     showgrid="false"
     fit-margin-top="0"
     fit-margin-left="0"
     fit-margin-right="0"
     fit-margin-bottom="0"
     inkscape:window-width="1366"
     inkscape:window-height="744"
     inkscape:window-x="0"
     inkscape:window-y="24"
     inkscape:window-maximized="1" />
  <metadata
     id="metadata7">
    <rdf:RDF>
      <cc:Work
         rdf:about="">
        <dc:format>image/svg+xml</dc:format>
        <dc:type
           rdf:resource="http://purl.org/dc/dcmitype/StillImage" />
        <dc:title></dc:title>
      </cc:Work>
    </rdf:RDF>
  </metadata>
  <g
     inkscape:label="Layer 1"
     inkscape:groupmode="layer"
     id="layer1"
     transform="translate(-195.00004,-180.08462)">
    <path
       sodipodi:type="arc"
       style="opacity:0.5;fill:url(#radialGradient10911);fill-opacity:1;fill-rule:evenodd;stroke:none"
       id="path10901"
       sodipodi:cx="477.5"
       sodipodi:cy="312.86218"
       sodipodi:rx="41.5"
       sodipodi:ry="7.5"
       d="m 519,312.86218 c 0,4.14214 -18.58018,7.5 -41.5,7.5 -22.91982,0 -41.5,-3.35786 -41.5,-7.5 0,-4.14213 18.58018,-7.5 41.5,-7.5 22.91982,0 41.5,3.35787 41.5,7.5 z"
       transform="translate(-2.5,4)" />
    <path
       transform="matrix(0.69591303,0,0,0.69591303,-358.64151,-8.12298)"
       d="m 440.15625,196.28125 c -2.55871,-0.10618 -5.17806,-0.0478 -7.84375,0.21875 -19.47747,1.94775 -33.86978,11.55016 -47.90625,27.71875 -13.05972,15.04348 -14.01856,15.91592 -23.625,22 -9.57415,6.06363 -23.84466,14.03869 -36.28125,25.15625 -13.62656,12.18132 -45.36928,49.28107 -69.09375,109.9375 -14.98591,38.31449 -14.99389,45.20363 -18.21875,50.1875 -0.59637,0.92166 -7.8816,8.87834 -15.03125,16.125 -7.14965,7.24666 -14.41554,14.17043 -19.1875,22.0625 -3.58604,5.93077 -5.54961,9.64389 -5.78125,15.25 -0.11582,2.80306 0.57839,6.53166 2.8125,9.5 1.11705,1.48417 2.52238,2.67641 3.84375,3.46875 1.32137,0.79234 3.5625,1.46875 3.5625,1.46875 a 12.651686,12.651686 0 0 0 0.53125,0.125 l -16.5625,14.78125 a 12.651686,12.651686 0 0 0 8.25,22.09375 c 0,0 17.90945,0.28912 37.96875,-8.65625 10.89198,-4.85724 23.69163,-13.71951 36.34375,-22.28125 12.65212,-8.56174 25.55645,-16.98197 29.78125,-18.84375 4.36163,-1.92208 7.07966,-3.28916 10.34375,-4.875 a 12.651686,12.651686 0 0 0 8.84375,2.59375 l 0.4375,0.75 a 12.651686,12.651686 0 0 0 10.59375,6.375 12.651686,12.651686 0 0 0 9.9375,4.75 c 0.12597,0.762 0.19213,1.49754 0.375,2.28125 1.08509,4.65044 2.6477,8.20824 4,10.53125 0.0312,0.0535 0.0316,0.0414 0.0625,0.0937 0.2353,0.77701 0.52157,1.18043 0.8125,1.9375 0.56905,1.48081 1.3167,3.01801 2.40625,4.6875 2.17909,3.33899 5.94726,7.38867 11.90625,9.375 5.1112,1.70374 10.61061,1.25776 14.375,-0.3125 0.23197,-0.0968 0.43123,-0.2353 0.65625,-0.34375 a 12.651686,12.651686 0 0 0 9.96875,0.875 12.651686,12.651686 0 0 0 15.71875,3.875 c 0,0 2.81361,-1.49439 5.65625,-3.375 a 12.651686,12.651686 0 0 0 13.375,3.53125 c 0,0 3.4724,-1.13901 7.34375,-3 1.93567,-0.93049 4.0302,-2.01735 6.28125,-3.65625 2.25105,-1.6389 5.18274,-3.52298 7.09375,-8.9375 0.96499,-2.73414 1.254,-5.31239 1.34375,-7.5625 0.46977,-0.71967 0.53791,-0.6663 1.03125,-1.53125 1.85985,-3.26082 4.7161,-7.24544 3.9375,-15.03125 -0.65405,-6.54055 -3.16813,-8.6116 -5.09375,-11 -1.92562,-2.3884 -3.96196,-4.40583 -5.90625,-6.21875 -3.776,-3.52088 -7.13936,-6.1241 -7.34375,-6.28125 0,0 -0.19986,-0.17226 -0.21875,-0.1875 -0.32107,-0.25893 -3.11033,-2.50173 -7.03125,-4.78125 -4.15163,-2.41365 -9.02696,-6.46443 -18.90625,-4.40625 -0.43601,0.0908 -0.59312,0.18885 -1,0.28125 -1.57477,-1.63109 -1.91956,-1.85541 -3.90625,-4.125 -2.27647,-2.60064 -4.55461,-5.41807 -6.15625,-7.75 -1.60164,-2.33193 -2.31957,-4.54141 -2.09375,-3.46875 -0.88802,-4.21804 -0.78728,-5.38961 -0.875,-4.71875 -0.0877,0.67086 -0.19006,0.57224 1.375,-2.4375 1.99395,-3.83453 4.25676,-5.29148 15.4375,-17.6875 2.8497,-3.15944 5.00673,-5.00091 6.9375,-6.5625 1.93077,-1.56159 3.88673,-2.09572 6.96875,-6.71875 0.38658,-0.57987 0.53123,-1.07333 0.84375,-1.625 3.13664,-1.5655 6.2365,-3.91725 8.375,-7.125 0.49935,-0.74903 6.19859,-7.86921 11.6875,-18.6875 5.48891,-10.81829 11.47664,-26.41228 15.9375,-48.46875 2.32894,-11.51534 3.52008,-19.3724 3.4375,-26.625 -0.0826,-7.2526 -1.82798,-13.58146 -4.09375,-19.3125 -1.43294,-3.62447 -3.05668,-6.39886 -4.6875,-8.78125 0.087,-0.23063 0.0674,-0.2373 0.15625,-0.46875 0.19677,-0.5128 0.36395,-0.81903 0.5625,-1.3125 0.50327,-0.0484 0.84602,-0.11285 1.375,-0.15625 3.60401,-0.29571 8.13263,-0.40236 8.625,-0.375 0.15024,0.008 0.74813,0.12996 1,0.15625 A 12.651686,12.651686 0 0 0 479.71875,282.5 c 0,0 6.70265,-1.16974 11.40625,-5.71875 4.7036,-4.54901 8.00906,-12.26309 8.09375,-21.75 0.10184,-11.40996 -6.2522,-18.59042 -11.28125,-22.75 -1.39059,-4.49952 -4.4156,-12.28381 -10.90625,-19.15625 -6.72423,-7.11978 -19.18209,-16.10953 -36.875,-16.84375 z m 16.0625,71.125 c -0.0735,0.11572 0.0202,0.43518 -0.5,1.0625 0.0586,-0.12816 0.16624,-0.39 0.21875,-0.5 0.23458,-0.49137 0.42149,-0.78316 0.28125,-0.5625 z m -31.15625,232.625 3.4375,1.125 c -1.40707,-0.2103 -2.52922,-0.60753 -3.4375,-1.125 z m -77.15625,5.03125 c 0,1.72038 0.16333,2.42087 0.3125,3.15625 -0.16981,-0.81948 -0.3125,-1.84306 -0.3125,-3.15625 z m 0.75,4.59375 c 0.40155,0.63786 0.89513,1.38915 0.90625,1.40625 0.009,0.0135 -0.46121,-0.34681 -0.90625,-1.40625 z"
       id="path10049"
       style="fill:#210810;fill-opacity:1;stroke:none"
       inkscape:original="M 439.625 208.90625 C 437.68962 208.82594 435.65197 208.8848 433.5625 209.09375 C 416.84669 210.76533 407.17424 217.28862 393.96875 232.5 C 380.76326 247.71139 377.59199 250.55424 367.5625 256.90625 C 357.53302 263.25826 343.96993 270.95017 332.9375 280.8125 C 321.90507 290.67482 290.11802 327.27972 267.1875 385.90625 C 252.42782 423.64234 253.01323 430.33751 247.8125 438.375 C 242.61176 446.41251 219.92759 466.05368 213.78125 476.21875 C 207.63493 486.38383 210.46875 487.09375 210.46875 487.09375 L 223.46875 486.125 L 223.21875 498.1875 L 228.65625 497.96875 L 199.8125 523.71875 C 199.8125 523.71875 214.94411 523.95736 232.4375 516.15625 C 249.9309 508.35513 284.67756 481.17757 298.625 475.03125 C 312.57243 468.88492 320.84375 464.15625 320.84375 464.15625 L 321.8125 471.71875 L 329.375 470.0625 L 334.34375 478.8125 L 339.78125 476.21875 L 343.78125 483.53125 L 353.46875 472.1875 L 355.125 472.90625 L 358.21875 479.75 C 358.21875 479.75 354.90771 488.50184 356.5625 495.59375 C 358.21727 502.68567 360.5625 504.11691 360.5625 505.0625 C 360.5625 506.0081 362.47316 511.43897 367.4375 513.09375 C 372.40184 514.74854 374.75 511.90625 374.75 511.90625 C 374.75 511.90625 368.83677 512.84486 366 509.0625 C 363.16324 505.28016 363.65625 502.4375 363.65625 502.4375 C 363.65625 502.4375 369.32059 501.26066 368.375 498.1875 C 367.42941 495.11433 362.47022 489.93052 364.125 487.09375 C 365.77979 484.25699 368.12647 487.5625 369.78125 487.5625 C 371.43604 487.5625 374.0625 485.67572 374.0625 492.53125 C 374.0625 499.38676 372.40368 505.50698 374.53125 508.34375 C 376.65884 511.18053 379.25 509.53125 379.25 509.53125 C 379.25 509.53125 375.7011 505.74302 375.9375 502.90625 C 376.17389 500.06948 378.05588 496.77721 380.65625 497.25 C 383.25661 497.72279 384.21875 503.4011 384.21875 507.65625 C 384.21875 511.91141 384.4375 513.3125 384.4375 513.3125 C 384.4375 513.3125 388.94558 508.34485 388 504.5625 C 387.0544 500.78015 384.9375 495.8125 384.9375 495.8125 C 384.9375 495.8125 382.80992 490.86397 384.9375 488.5 C 387.06507 486.13603 389.1875 486.375 389.1875 486.375 C 389.1875 486.375 391.07499 494.86837 395.09375 497.46875 C 399.1125 500.06911 401.9375 500.5625 401.9375 500.5625 L 401.21875 510.25 L 404.3125 503.625 C 404.3125 503.625 404.31103 509.52464 402.65625 512.125 C 401.00146 514.72538 398.625 517.8125 398.625 517.8125 C 398.625 517.8125 407.83971 513.33531 408.3125 508.84375 C 408.7853 504.3522 409.5217 499.86103 408.8125 494.1875 C 408.10331 488.51397 405.5 482.125 405.5 482.125 C 405.5 482.125 410.44301 479.74191 411.625 480.6875 C 412.80698 481.63309 418.71875 485.90625 418.71875 485.90625 C 418.71875 485.90625 415.89964 496.78677 418.5 497.96875 C 421.10037 499.15073 426.53125 502.90625 426.53125 502.90625 C 426.53125 502.90625 428.89522 508.37241 426.53125 510.5 C 424.16728 512.62757 419.1875 517.34375 419.1875 517.34375 C 419.1875 517.34375 430.55037 513.54999 431.96875 509.53125 C 433.20296 506.03433 432.66513 503.31873 432.5 502.5625 C 432.65287 502.3704 438.09125 495.5374 437.625 490.875 C 437.15221 486.14706 423.9375 475.96875 423.9375 475.96875 C 423.9375 475.96875 413.98603 467.94302 408.3125 469.125 C 402.63897 470.307 401 471.46875 401 471.46875 C 401 471.46875 382.07867 453.26434 380.1875 444.28125 C 378.29631 435.29816 378.77059 434.59744 381.84375 428.6875 C 384.91691 422.77757 388.21948 420.43124 399.09375 408.375 C 405.87065 400.8615 410.45662 398.65882 411.875 396.53125 C 413.29338 394.40367 413.53125 391.09375 413.53125 391.09375 C 413.53125 391.09375 417.78419 392.74559 421.09375 387.78125 C 424.40332 382.81691 438.33345 367.23495 446.84375 325.15625 C 451.37483 302.75254 450.86251 296.54007 446.84375 286.375 C 443.75739 278.56836 439.53125 275.5 439.53125 275.5 C 439.53125 275.5 444.48383 260.60184 446.375 259.65625 C 448.26617 258.71065 461.05735 257.76359 465.3125 258 C 469.56765 258.23638 478.9211 259.95574 479.46875 261.78125 C 480.88715 266.50919 478.21875 269.9375 478.21875 269.9375 C 478.21875 269.9375 486.43712 268.95096 486.5625 254.90625 C 486.6604 243.93814 476.875 239.53125 476.875 239.53125 C 476.875 239.53125 473.52713 227.83019 467.84375 221.8125 C 462.8708 216.54702 453.17264 209.46845 439.625 208.90625 z M 382.3125 466.5 L 386.09375 474.5625 L 376.1875 474.78125 C 376.1875 474.78125 379.5 471.73088 379.5 470.3125 C 379.5 468.89411 382.3125 466.5 382.3125 466.5 z M 430.53125 488.71875 C 432.04936 488.79632 434.27105 490.56884 434.09375 493.9375 C 433.867 498.24593 432.60679 502.14236 432.5 502.46875 C 432.48164 502.38759 432.4375 501.96875 432.4375 501.96875 C 432.4375 501.96875 428.42941 490.63713 429.375 489.21875 C 429.6114 488.86415 430.02521 488.69289 430.53125 488.71875 z "
       inkscape:radius="12.650421"
       sodipodi:type="inkscape:offset" />
    <g
       id="g10895"
       transform="matrix(0.65495568,0,0,0.65495568,256.24992,61.921618)">
      <path
         id="rect10870"
         d="m 336.58285,180.41373 c 51.31757,0 92.63099,41.31342 92.63099,92.63099 0,51.31756 -41.31342,92.63098 -92.63099,92.63098 -51.31757,0 -92.63099,-41.31342 -92.63099,-92.63098 0,-51.31757 41.31342,-92.63099 92.63099,-92.63099 z"
         style="fill:#3c0050;fill-opacity:1;fill-rule:evenodd;stroke:none"
         inkscape:connector-curvature="0" />
      <path
         id="path10878"
         d="m 337.28125,261.03125 c -37.14348,0 -69.02296,21.64779 -83.8125,53.0625 15.08414,30.61446 46.56624,51.59375 83.125,51.59375 37.14027,0 69.02128,-21.6522 83.8125,-53.0625 -15.08218,-30.61998 -46.56221,-51.59375 -83.125,-51.59375 z"
         style="fill:#480060;fill-opacity:1;fill-rule:evenodd;stroke:none"
         inkscape:connector-curvature="0" />
      <path
         id="path10885"
         d="m 336.25,303.03125 c -27.52202,0 -51.76951,13.44219 -66.625,34.125 16.84088,17.59446 40.58043,28.53125 66.96875,28.53125 26.20289,0 49.7809,-10.77843 66.59375,-28.15625 -14.83267,-20.91003 -39.23768,-34.5 -66.9375,-34.5 z"
         style="fill:#600084;fill-opacity:1;fill-rule:evenodd;stroke:none"
         inkscape:connector-curvature="0" />
      <path
         style="fill:#e8dcf0;stroke:#3c0050;stroke-width:2;stroke-miterlimit:4;stroke-opacity:1;stroke-dasharray:none"
         d="m 380.59635,246.75802 c 0,0 4.33465,-0.52628 4.40066,-7.92121 0.0515,-5.77502 -5.10477,-8.09723 -5.10477,-8.09723 0,0 -1.76027,-6.16094 -4.75273,-9.32943 -2.99245,-3.16848 -9.24141,-7.56915 -18.04275,-6.68901 -8.80134,0.88013 -13.90612,4.31266 -20.85918,12.32187 -6.95306,8.00923 -8.62532,9.50545 -13.90612,12.84996 -5.28081,3.34451 -12.4099,7.39313 -18.21878,12.58592 -5.80888,5.19279 -22.54577,24.46486 -34.61933,55.33337 -7.77139,19.86911 -7.46819,23.40032 -10.20652,27.63228 -2.73834,4.23198 -14.68744,14.56298 -17.92366,19.91517 -3.23621,5.3522 -1.74257,5.72561 -1.74257,5.72561 l 6.84584,-0.49788 -0.12447,6.34796 2.8628,-0.12447 -15.18531,13.56721 c 0,0 7.96607,0.12447 17.17683,-3.98303 9.21076,-4.10751 27.50782,-18.42154 34.85153,-21.65775 7.34372,-3.23621 11.70017,-5.72561 11.70017,-5.72561 l 0.49787,3.98304 3.98304,-0.87129 2.61386,4.60538 2.86281,-1.36917 2.11598,3.85857 5.10326,-5.97455 0.87129,0.3734 1.61811,3.60963 c 0,0 -1.74258,4.60538 -0.87129,8.33947 0.87129,3.73409 2.11598,4.48091 2.11598,4.97879 0,0.49789 0.99576,3.36069 3.60963,4.23198 2.61386,0.87129 3.85856,-0.62235 3.85856,-0.62235 0,0 -3.11175,0.49787 -4.60539,-1.49364 -1.49363,-1.99151 -1.24469,-3.48515 -1.24469,-3.48515 0,0 2.98728,-0.62235 2.4894,-2.24046 -0.49788,-1.61811 -3.11175,-4.35644 -2.24046,-5.85008 0.87129,-1.49364 2.11598,0.24895 2.98727,0.24895 0.8713,0 2.24046,-0.99577 2.24046,2.61386 0,3.60962 -0.87129,6.84583 0.24894,8.33947 1.12023,1.49364 2.4894,0.62235 2.4894,0.62235 0,0 -1.86705,-1.99151 -1.74258,-3.48515 0.12447,-1.49364 1.12023,-3.23621 2.4894,-2.98728 1.36916,0.24894 1.86704,3.23621 1.86704,5.47667 0,2.24046 0.12448,2.98728 0.12448,2.98728 0,0 2.36492,-2.61387 1.86704,-4.60539 -0.49788,-1.99151 -1.61811,-4.60538 -1.61811,-4.60538 0,0 -1.12023,-2.61386 0,-3.85856 1.12023,-1.2447 2.24046,-1.12023 2.24046,-1.12023 0,0 0.99575,4.48091 3.11174,5.85008 2.11599,1.36917 3.60963,1.6181 3.60963,1.6181 l -0.37341,5.10327 1.6181,-3.48516 c 0,0 0,3.11175 -0.87129,4.48092 -0.87129,1.36917 -2.11598,2.98727 -2.11598,2.98727 0,0 4.85432,-2.36492 5.10326,-4.72985 0.24894,-2.36493 0.62235,-4.72985 0.24894,-7.71713 -0.37341,-2.98727 -1.74258,-6.34796 -1.74258,-6.34796 0,0 2.61387,-1.24469 3.23622,-0.74681 0.62234,0.49788 3.73409,2.73833 3.73409,2.73833 0,0 -1.49364,5.72562 -0.12447,6.34796 1.36916,0.62235 4.23197,2.61387 4.23197,2.61387 0,0 1.2447,2.8628 0,3.98303 -1.2447,1.12023 -3.85856,3.60962 -3.85856,3.60962 0,0 5.97455,-1.99152 6.72136,-4.1075 0.74682,-2.11599 0.24895,-3.98303 0.24895,-3.98303 0,0 -2.11599,-5.97455 -1.61811,-6.72137 0.49788,-0.74682 2.61386,0.12447 2.48939,2.4894 -0.12446,2.36492 -0.87128,4.60537 -0.87128,4.60537 0,0 2.98727,-3.73409 2.73833,-6.22348 -0.24894,-2.4894 -7.21925,-7.8416 -7.21925,-7.8416 0,0 -5.22773,-4.23197 -8.215,-3.60962 -2.98728,0.62235 -3.85857,1.2447 -3.85857,1.2447 0,0 -9.95758,-9.58418 -10.95333,-14.31403 -0.99577,-4.72984 -0.74682,-5.10325 0.87129,-8.215 1.6181,-3.11175 3.36068,-4.35645 9.08629,-10.7044 3.56822,-3.95607 5.97455,-5.10326 6.72136,-6.22349 0.74682,-1.12023 0.87129,-2.86281 0.87129,-2.86281 0,0 2.24046,0.87129 3.98303,-1.74257 1.74259,-2.61387 9.0863,-10.82887 13.56721,-32.98449 2.38574,-11.79618 2.11599,-15.06085 0,-20.41304 -1.62505,-4.11042 -3.85856,-5.72562 -3.85856,-5.72562 0,0 2.61387,-7.84159 3.60962,-8.33947 0.99576,-0.49788 7.71712,-0.99576 9.95758,-0.87128 2.24046,0.12446 7.17983,1.03032 7.46818,1.99151 0.74683,2.48939 -0.67084,4.29239 -0.67084,4.29239 z m -50.48623,103.49843 1.99152,4.23198 -5.22773,0.12446 c 0,0 1.74258,-1.6181 1.74258,-2.36492 0,-0.74682 1.49363,-1.99152 1.49363,-1.99152 z"
         id="path9983"
         inkscape:connector-curvature="0"
         sodipodi:nodetypes="cscsssssssscccccsscccccccccssscscssssscssscscscscccscsscscscscscsscscscsssscssscsssc" />
    </g>
    <text
       xml:space="preserve"
       style="font-size:102.89859772px;font-style:normal;font-variant:normal;font-weight:normal;font-stretch:normal;text-align:center;line-height:125%;letter-spacing:0px;word-spacing:0px;text-anchor:middle;fill:#3c0050;fill-opacity:1;stroke:none;font-family:Ubuntu;-inkscape-font-specification:Ubuntu"
       x="299.93674"
       y="265.02966"
       id="text10891"
       sodipodi:linespacing="125%"><tspan
         sodipodi:role="line"
         id="tspan10893"
         x="299.93674"
         y="265.02966"
         style="font-size:102.89859772px;font-style:normal;font-variant:normal;font-weight:normal;font-stretch:normal;text-align:center;line-height:125%;writing-mode:lr-tb;text-anchor:middle;fill:#3c0050;fill-opacity:1;font-family:Droid Sans Arabic;-inkscape-font-specification:Droid Sans Arabic">صفة</tspan></text>
    <path
       transform="matrix(2.5060242,0,0,1,-897.62651,4)"
       d="m 519,312.86218 c 0,4.14214 -18.58018,7.5 -41.5,7.5 -22.91982,0 -41.5,-3.35786 -41.5,-7.5 0,-4.14213 18.58018,-7.5 41.5,-7.5 22.91982,0 41.5,3.35787 41.5,7.5 z"
       sodipodi:ry="7.5"
       sodipodi:rx="41.5"
       sodipodi:cy="312.86218"
       sodipodi:cx="477.5"
       id="path10913"
       style="opacity:0.5;fill:url(#radialGradient10917);fill-opacity:1;fill-rule:evenodd;stroke:none"
       sodipodi:type="arc" />
  </g>
</svg>
